<?xml version="1.0" standalone="no"?><!DOCTYPE svg PUBLIC "-//W3C//DTD SVG 1.1//EN" "http://www.w3.org/Graphics/SVG/1.1/DTD/svg11.dtd"><svg t="1649065014799" class="icon" viewBox="0 0 1024 1024" version="1.1" xmlns="http://www.w3.org/2000/svg" p-id="3804" xmlns:xlink="http://www.w3.org/1999/xlink" width="128" height="128"><defs><style type="text/css">@font-face { font-family: feedback-iconfont; src: url("//at.alicdn.com/t/font_1031158_u69w8yhxdu.woff2?t=1630033759944") format("woff2"), url("//at.alicdn.com/t/font_1031158_u69w8yhxdu.woff?t=1630033759944") format("woff"), url("//at.alicdn.com/t/font_1031158_u69w8yhxdu.ttf?t=1630033759944") format("truetype"); }
</style></defs><path d="M528.070907 1023.624671l-10.679817-4.16274C173.999134 885.128253 134.316617 709.747226 134.316617 589.368965V129.932092l30.640499 1.057745C403.632268 139.212955 505.278198 30.265169 506.19946 29.207424l21.905568-24.157542 21.837326 24.191663c0.784779 0.853021 97.141981 102.225984 315.754091 102.225984h0.03412c8.359601 0 16.821565-0.136483 25.454134-0.40945l30.606378-1.091867v459.505115c0 120.275899-39.682516 295.759288-383.040352 430.024724l-10.679818 4.12862zM193.550365 191.383693v398.019393c0 64.693079 0 235.501916 334.486422 369.903835 334.452301-134.367798 334.452301-305.176635 334.4523-369.903835V191.383693c-185.173703-0.750658-291.801273-67.388624-334.486421-101.850655-42.685149 34.42791-149.244477 101.031755-334.452301 101.850655z m300.843291 132.695878l12.829429 285.215954h44.015861l12.795308-285.215954h-69.640598z m34.530272 318.108427c-11.157509 0-20.608977 3.343841-28.422645 11.123388-8.359601 7.233614-12.215254 16.685082-12.215255 28.354403 0 11.19163 3.889774 20.643098 12.215255 28.456766 7.813668 7.813668 17.265136 11.703442 28.422645 11.703442s21.15491-3.889774 29.514511-11.123388c7.813668-7.813668 11.703442-17.265136 11.703442-29.03682 0-11.669321-3.855653-21.120789-11.703442-28.354403-7.779547-7.779547-17.776948-11.123388-29.514511-11.123388z" p-id="3805" fill="#bfbfbf"></path></svg>